<?xml version="1.0" encoding="UTF-8" standalone="no"?>
<!-- Uploaded to: SVG Repo, www.svgrepo.com, Generator: SVG Repo Mixer Tools -->

<svg
   width="800px"
   height="800px"
   viewBox="0 0 24 24"
   fill="none"
   version="1.1"
   id="svg3"
   sodipodi:docname="graphic_design.svg"
   inkscape:version="1.3.2 (091e20e, 2023-11-25, custom)"
   xmlns:inkscape="http://www.inkscape.org/namespaces/inkscape"
   xmlns:sodipodi="http://sodipodi.sourceforge.net/DTD/sodipodi-0.dtd"
   xmlns="http://www.w3.org/2000/svg"
   xmlns:svg="http://www.w3.org/2000/svg">
  <defs
     id="defs3" />
  <sodipodi:namedview
     id="namedview3"
     pagecolor="#ffffff"
     bordercolor="#000000"
     borderopacity="0.25"
     inkscape:showpageshadow="2"
     inkscape:pageopacity="0.0"
     inkscape:pagecheckerboard="0"
     inkscape:deskcolor="#d1d1d1"
     inkscape:zoom="0.97125"
     inkscape:cx="400"
     inkscape:cy="400"
     inkscape:window-width="1920"
     inkscape:window-height="991"
     inkscape:window-x="-9"
     inkscape:window-y="-9"
     inkscape:window-maximized="1"
     inkscape:current-layer="svg3" />
  <path
     d="M7 3.34132C8.47087 2.48824 10.1786 2 12 2C17.5228 2 22 6.48884 22 12.0261C22 20.178 13.8385 14.4192 12.2619 16.9268C11.8674 17.5541 12.2938 18.3364 12.8168 18.8607C13.4703 19.5159 13.4703 20.5781 12.8168 21.2333C12.2938 21.7576 11.5816 22.0709 10.8468 21.9863C5.86713 21.413 2 17.1723 2 12.0261C2 10.1945 2.48985 8.47765 3.34537 7"
     stroke="#1C274C"
     stroke-width="1.5"
     stroke-linecap="round"
     id="path1"
     style="stroke:#f2f2f2;stroke-opacity:1" />
  <circle
     cx="17.5"
     cy="11.5"
     r="1.5"
     stroke="#1C274C"
     stroke-width="1.5"
     id="circle1"
     style="stroke:#f2f2f2;stroke-opacity:1" />
  <circle
     cx="6.5"
     cy="11.5"
     r="1.5"
     stroke="#1C274C"
     stroke-width="1.5"
     id="circle2"
     style="stroke:#f2f2f2;stroke-opacity:1" />
  <path
     d="M11.085 6.99976C11.085 7.82818 10.4134 8.49976 9.58496 8.49976C8.75653 8.49976 8.08496 7.82818 8.08496 6.99976C8.08496 6.17133 8.75653 5.49976 9.58496 5.49976C10.4134 5.49976 11.085 6.17133 11.085 6.99976Z"
     stroke="#1C274C"
     stroke-width="1.5"
     id="path2"
     style="stroke:#f2f2f2;stroke-opacity:1" />
  <path
     d="M16 7C16 7.82843 15.3284 8.5 14.5 8.5C13.6716 8.5 13 7.82843 13 7C13 6.17157 13.6716 5.5 14.5 5.5C15.3284 5.5 16 6.17157 16 7Z"
     stroke="#1C274C"
     stroke-width="1.5"
     id="path3"
     style="stroke:#f2f2f2;stroke-opacity:1" />
</svg>
